<mxfile host="Electron" modified="2024-01-25T08:38:11.751Z" agent="Mozilla/5.0 (Windows NT 10.0; Win64; x64) AppleWebKit/537.36 (KHTML, like Gecko) draw.io/22.1.21 Chrome/120.0.6099.109 Electron/28.1.0 Safari/537.36" etag="hemKN91BoVF4dN9yNxLo" version="22.1.21" type="device">
  <diagram id="TyApCWpkgVofk_S0nbqM" name="페이지-1">
    <mxGraphModel dx="1434" dy="2844" grid="1" gridSize="10" guides="1" tooltips="1" connect="1" arrows="1" fold="1" page="1" pageScale="1" pageWidth="3500" pageHeight="2000" math="0" shadow="0">
      <root>
        <mxCell id="0" />
        <mxCell id="1" parent="0" />
        <mxCell id="l3aqHpHgYv1EVChQh6qO-7" value="초기화면" style="swimlane;fontStyle=0;childLayout=stackLayout;horizontal=1;startSize=26;fillColor=#e0e0e0;horizontalStack=0;resizeParent=1;resizeParentMax=0;resizeLast=0;collapsible=1;marginBottom=0;swimlaneFillColor=#ffffff;align=center;fontSize=14;" parent="1" vertex="1">
          <mxGeometry x="30" y="932" width="160" height="136" as="geometry" />
        </mxCell>
        <mxCell id="l3aqHpHgYv1EVChQh6qO-8" value="1. 로그인&#xa;&#xa;2. 회원가입&#xa;&#xa;3, 계정 찾기&#xa;&#xa;0. 프로그램 종료" style="text;strokeColor=none;fillColor=none;spacingLeft=4;spacingRight=4;overflow=hidden;rotatable=0;points=[[0,0.5],[1,0.5]];portConstraint=eastwest;fontSize=12;" parent="l3aqHpHgYv1EVChQh6qO-7" vertex="1">
          <mxGeometry y="26" width="160" height="110" as="geometry" />
        </mxCell>
        <mxCell id="l3aqHpHgYv1EVChQh6qO-12" value="3. 계정 찾기" style="swimlane;fontStyle=0;childLayout=stackLayout;horizontal=1;startSize=26;fillColor=#e0e0e0;horizontalStack=0;resizeParent=1;resizeParentMax=0;resizeLast=0;collapsible=1;marginBottom=0;swimlaneFillColor=#ffffff;align=center;fontSize=14;" parent="1" vertex="1">
          <mxGeometry x="803" y="1098" width="160" height="110" as="geometry" />
        </mxCell>
        <mxCell id="l3aqHpHgYv1EVChQh6qO-13" value="1. 아이디 찾기&#xa;&#xa;2. 비밀번호 재설정&#xa;&#xa;0. 이전으로" style="text;strokeColor=none;fillColor=none;spacingLeft=4;spacingRight=4;overflow=hidden;rotatable=0;points=[[0,0.5],[1,0.5]];portConstraint=eastwest;fontSize=12;" parent="l3aqHpHgYv1EVChQh6qO-12" vertex="1">
          <mxGeometry y="26" width="160" height="84" as="geometry" />
        </mxCell>
        <mxCell id="l3aqHpHgYv1EVChQh6qO-16" value="1. 로그인" style="swimlane;fontStyle=0;childLayout=stackLayout;horizontal=1;startSize=26;fillColor=#e0e0e0;horizontalStack=0;resizeParent=1;resizeParentMax=0;resizeLast=0;collapsible=1;marginBottom=0;swimlaneFillColor=#ffffff;align=center;fontSize=14;" parent="1" vertex="1">
          <mxGeometry x="340" y="648" width="160" height="190" as="geometry" />
        </mxCell>
        <mxCell id="l3aqHpHgYv1EVChQh6qO-17" value="1. 자산 관리&#xa;&#xa;2. 송금&#xa;&#xa;3. 투자&#xa;&#xa;4. 고객 센터&#xa;&#xa;5. MyPage&#xa;&#xa;0. 로그아웃" style="text;strokeColor=none;fillColor=none;spacingLeft=4;spacingRight=4;overflow=hidden;rotatable=0;points=[[0,0.5],[1,0.5]];portConstraint=eastwest;fontSize=12;" parent="l3aqHpHgYv1EVChQh6qO-16" vertex="1">
          <mxGeometry y="26" width="160" height="164" as="geometry" />
        </mxCell>
        <mxCell id="l3aqHpHgYv1EVChQh6qO-23" value="2. 회원가입" style="swimlane;fontStyle=0;childLayout=stackLayout;horizontal=1;startSize=26;fillColor=#e0e0e0;horizontalStack=0;resizeParent=1;resizeParentMax=0;resizeLast=0;collapsible=1;marginBottom=0;swimlaneFillColor=#ffffff;align=center;fontSize=14;" parent="1" vertex="1">
          <mxGeometry x="600" y="860" width="160" height="280" as="geometry" />
        </mxCell>
        <mxCell id="l3aqHpHgYv1EVChQh6qO-24" value="ID 입력&#xa;&#xa;PW 입력&#xa;&#xa;PW 확인 입력&#xa;&#xa;이름 입력&#xa;&#xa;나이 입력&#xa;&#xa;전화번호 입력&#xa;&#xa;매크로 방지&#xa;&#xa;정보 제공 동의서&#xa;&#xa;0. 이전으로" style="text;strokeColor=none;fillColor=none;spacingLeft=4;spacingRight=4;overflow=hidden;rotatable=0;points=[[0,0.5],[1,0.5]];portConstraint=eastwest;fontSize=12;" parent="l3aqHpHgYv1EVChQh6qO-23" vertex="1">
          <mxGeometry y="26" width="160" height="254" as="geometry" />
        </mxCell>
        <mxCell id="l3aqHpHgYv1EVChQh6qO-30" value="4. 프로그램 종료" style="swimlane;fontStyle=0;childLayout=stackLayout;horizontal=1;startSize=26;fillColor=#e0e0e0;horizontalStack=0;resizeParent=1;resizeParentMax=0;resizeLast=0;collapsible=1;marginBottom=0;swimlaneFillColor=#ffffff;align=center;fontSize=14;" parent="1" vertex="1">
          <mxGeometry x="30" y="1152" width="160" height="56" as="geometry" />
        </mxCell>
        <mxCell id="l3aqHpHgYv1EVChQh6qO-31" value="프로그램 종료 여부 확인" style="text;strokeColor=none;fillColor=none;spacingLeft=4;spacingRight=4;overflow=hidden;rotatable=0;points=[[0,0.5],[1,0.5]];portConstraint=eastwest;fontSize=12;" parent="l3aqHpHgYv1EVChQh6qO-30" vertex="1">
          <mxGeometry y="26" width="160" height="30" as="geometry" />
        </mxCell>
        <mxCell id="l3aqHpHgYv1EVChQh6qO-34" value="" style="endArrow=classic;html=1;entryX=0.5;entryY=0;entryDx=0;entryDy=0;" parent="1" source="l3aqHpHgYv1EVChQh6qO-8" target="l3aqHpHgYv1EVChQh6qO-30" edge="1">
          <mxGeometry width="50" height="50" relative="1" as="geometry">
            <mxPoint x="105.03999999999996" y="1083.984" as="sourcePoint" />
            <mxPoint x="105" y="1142" as="targetPoint" />
          </mxGeometry>
        </mxCell>
        <mxCell id="Gln6LFS1-jDFEQIsU3n5-4" style="edgeStyle=orthogonalEdgeStyle;rounded=0;orthogonalLoop=1;jettySize=auto;html=1;entryX=0;entryY=0.5;entryDx=0;entryDy=0;" parent="1" source="l3aqHpHgYv1EVChQh6qO-8" target="l3aqHpHgYv1EVChQh6qO-17" edge="1">
          <mxGeometry relative="1" as="geometry" />
        </mxCell>
        <mxCell id="Gln6LFS1-jDFEQIsU3n5-8" value="1. 자산관리" style="swimlane;fontStyle=0;childLayout=stackLayout;horizontal=1;startSize=26;fillColor=#e0e0e0;horizontalStack=0;resizeParent=1;resizeParentMax=0;resizeLast=0;collapsible=1;marginBottom=0;swimlaneFillColor=#ffffff;align=center;fontSize=14;" parent="1" vertex="1">
          <mxGeometry x="590" y="-290" width="160" height="160" as="geometry" />
        </mxCell>
        <mxCell id="Gln6LFS1-jDFEQIsU3n5-9" value="총 자산&#xa;&#xa;1. 계좌 관리&#xa;&#xa;2. 투자 관리&#xa;&#xa;3. 대출 관리&#xa;&#xa;0. 이전으로" style="text;strokeColor=none;fillColor=none;spacingLeft=4;spacingRight=4;overflow=hidden;rotatable=0;points=[[0,0.5],[1,0.5]];portConstraint=eastwest;fontSize=12;" parent="Gln6LFS1-jDFEQIsU3n5-8" vertex="1">
          <mxGeometry y="26" width="160" height="134" as="geometry" />
        </mxCell>
        <mxCell id="Gln6LFS1-jDFEQIsU3n5-11" value="2. 송금" style="swimlane;fontStyle=0;childLayout=stackLayout;horizontal=1;startSize=26;fillColor=#e0e0e0;horizontalStack=0;resizeParent=1;resizeParentMax=0;resizeLast=0;collapsible=1;marginBottom=0;swimlaneFillColor=#ffffff;align=center;fontSize=14;" parent="1" vertex="1">
          <mxGeometry x="590" y="-116" width="160" height="140" as="geometry" />
        </mxCell>
        <mxCell id="Gln6LFS1-jDFEQIsU3n5-12" value="1. 송금하기&#xa;&#xa;2. 송금 예약하기&#xa;&#xa;3. 더치페이&#xa;&#xa;0. 이전으로" style="text;strokeColor=none;fillColor=none;spacingLeft=4;spacingRight=4;overflow=hidden;rotatable=0;points=[[0,0.5],[1,0.5]];portConstraint=eastwest;fontSize=12;" parent="Gln6LFS1-jDFEQIsU3n5-11" vertex="1">
          <mxGeometry y="26" width="160" height="114" as="geometry" />
        </mxCell>
        <mxCell id="Gln6LFS1-jDFEQIsU3n5-14" value="3. 투자" style="swimlane;fontStyle=0;childLayout=stackLayout;horizontal=1;startSize=26;fillColor=#e0e0e0;horizontalStack=0;resizeParent=1;resizeParentMax=0;resizeLast=0;collapsible=1;marginBottom=0;swimlaneFillColor=#ffffff;align=center;fontSize=14;" parent="1" vertex="1">
          <mxGeometry x="1200" y="221" width="160" height="220" as="geometry" />
        </mxCell>
        <mxCell id="Gln6LFS1-jDFEQIsU3n5-15" value="1. 예적금&#xa;&#xa;2. 주식&#xa;&#xa;3. 펀드&#xa;&#xa;4. 대출&#xa;&#xa;5. 골드&#xa;&#xa;6. 환전&#xa;&#xa;0. 이전으로" style="text;strokeColor=none;fillColor=none;spacingLeft=4;spacingRight=4;overflow=hidden;rotatable=0;points=[[0,0.5],[1,0.5]];portConstraint=eastwest;fontSize=12;" parent="Gln6LFS1-jDFEQIsU3n5-14" vertex="1">
          <mxGeometry y="26" width="160" height="194" as="geometry" />
        </mxCell>
        <mxCell id="Gln6LFS1-jDFEQIsU3n5-17" value="4. 고객센터" style="swimlane;fontStyle=0;childLayout=stackLayout;horizontal=1;startSize=26;fillColor=#e0e0e0;horizontalStack=0;resizeParent=1;resizeParentMax=0;resizeLast=0;collapsible=1;marginBottom=0;swimlaneFillColor=#ffffff;align=center;fontSize=14;" parent="1" vertex="1">
          <mxGeometry x="1277" y="481" width="160" height="130" as="geometry" />
        </mxCell>
        <mxCell id="Gln6LFS1-jDFEQIsU3n5-18" value="1. 공지사항&#xa;&#xa;2. 문의하기&#xa;&#xa;3. 문의 내역&#xa;&#xa;0. 이전으로" style="text;strokeColor=none;fillColor=none;spacingLeft=4;spacingRight=4;overflow=hidden;rotatable=0;points=[[0,0.5],[1,0.5]];portConstraint=eastwest;fontSize=12;" parent="Gln6LFS1-jDFEQIsU3n5-17" vertex="1">
          <mxGeometry y="26" width="160" height="104" as="geometry" />
        </mxCell>
        <mxCell id="Gln6LFS1-jDFEQIsU3n5-19" style="edgeStyle=orthogonalEdgeStyle;rounded=0;orthogonalLoop=1;jettySize=auto;html=1;entryX=0;entryY=0.5;entryDx=0;entryDy=0;" parent="1" source="l3aqHpHgYv1EVChQh6qO-17" target="Gln6LFS1-jDFEQIsU3n5-18" edge="1">
          <mxGeometry relative="1" as="geometry" />
        </mxCell>
        <mxCell id="Gln6LFS1-jDFEQIsU3n5-20" value="5. MyPage" style="swimlane;fontStyle=0;childLayout=stackLayout;horizontal=1;startSize=26;fillColor=#e0e0e0;horizontalStack=0;resizeParent=1;resizeParentMax=0;resizeLast=0;collapsible=1;marginBottom=0;swimlaneFillColor=#ffffff;align=center;fontSize=14;" parent="1" vertex="1">
          <mxGeometry x="1277" y="633" width="160" height="220" as="geometry" />
        </mxCell>
        <mxCell id="Gln6LFS1-jDFEQIsU3n5-21" value="1. 개인정보 조회 및 수정&#xa;&#xa;2. 신용점수&#xa;&#xa;3. 안심송금서비스 설정&#xa;&#xa;4. 출석체크&#xa;&#xa;5. 포인트&#xa;&#xa;6. 회원탈퇴&#xa;&#xa;0. 이전으로" style="text;strokeColor=none;fillColor=none;spacingLeft=4;spacingRight=4;overflow=hidden;rotatable=0;points=[[0,0.5],[1,0.5]];portConstraint=eastwest;fontSize=12;" parent="Gln6LFS1-jDFEQIsU3n5-20" vertex="1">
          <mxGeometry y="26" width="160" height="194" as="geometry" />
        </mxCell>
        <mxCell id="Gln6LFS1-jDFEQIsU3n5-22" style="edgeStyle=orthogonalEdgeStyle;rounded=0;orthogonalLoop=1;jettySize=auto;html=1;entryX=0;entryY=0.5;entryDx=0;entryDy=0;" parent="1" source="l3aqHpHgYv1EVChQh6qO-17" target="Gln6LFS1-jDFEQIsU3n5-21" edge="1">
          <mxGeometry relative="1" as="geometry" />
        </mxCell>
        <mxCell id="Gln6LFS1-jDFEQIsU3n5-24" value="1. 계좌관리" style="swimlane;fontStyle=0;childLayout=stackLayout;horizontal=1;startSize=26;fillColor=#e0e0e0;horizontalStack=0;resizeParent=1;resizeParentMax=0;resizeLast=0;collapsible=1;marginBottom=0;swimlaneFillColor=#ffffff;align=center;fontSize=14;" parent="1" vertex="1">
          <mxGeometry x="870" y="-650" width="160" height="160" as="geometry" />
        </mxCell>
        <mxCell id="Gln6LFS1-jDFEQIsU3n5-25" value="1. 계좌 개설&#xa;&#xa;2. 계좌 조회&#xa;&#xa;3. 계좌 해지&#xa;&#xa;4. 이자 계산기&#xa;&#xa;0. 이전으로" style="text;strokeColor=none;fillColor=none;spacingLeft=4;spacingRight=4;overflow=hidden;rotatable=0;points=[[0,0.5],[1,0.5]];portConstraint=eastwest;fontSize=12;" parent="Gln6LFS1-jDFEQIsU3n5-24" vertex="1">
          <mxGeometry y="26" width="160" height="134" as="geometry" />
        </mxCell>
        <mxCell id="Gln6LFS1-jDFEQIsU3n5-26" style="edgeStyle=orthogonalEdgeStyle;rounded=0;orthogonalLoop=1;jettySize=auto;html=1;entryX=0;entryY=0.5;entryDx=0;entryDy=0;" parent="1" source="Gln6LFS1-jDFEQIsU3n5-9" target="Gln6LFS1-jDFEQIsU3n5-25" edge="1">
          <mxGeometry relative="1" as="geometry" />
        </mxCell>
        <mxCell id="Gln6LFS1-jDFEQIsU3n5-30" value="3. 대출 관리" style="swimlane;fontStyle=0;childLayout=stackLayout;horizontal=1;startSize=26;fillColor=#e0e0e0;horizontalStack=0;resizeParent=1;resizeParentMax=0;resizeLast=0;collapsible=1;marginBottom=0;swimlaneFillColor=#ffffff;align=center;fontSize=14;" parent="1" vertex="1">
          <mxGeometry x="1360" y="-470" width="160" height="160" as="geometry" />
        </mxCell>
        <mxCell id="Gln6LFS1-jDFEQIsU3n5-31" value="1. 내 대출 관리&#xa;&#xa;2. 대출 현황 보기&#xa;&#xa;3. 대출금 상환 내역&#xa;&#xa;4. 중도 상환 계산기&#xa;&#xa;0. 이전으로" style="text;strokeColor=none;fillColor=none;spacingLeft=4;spacingRight=4;overflow=hidden;rotatable=0;points=[[0,0.5],[1,0.5]];portConstraint=eastwest;fontSize=12;" parent="Gln6LFS1-jDFEQIsU3n5-30" vertex="1">
          <mxGeometry y="26" width="160" height="134" as="geometry" />
        </mxCell>
        <mxCell id="Gln6LFS1-jDFEQIsU3n5-44" value="1. 아이디 찾기" style="swimlane;fontStyle=0;childLayout=stackLayout;horizontal=1;startSize=26;fillColor=#e0e0e0;horizontalStack=0;resizeParent=1;resizeParentMax=0;resizeLast=0;collapsible=1;marginBottom=0;swimlaneFillColor=#ffffff;align=center;fontSize=14;" parent="1" vertex="1">
          <mxGeometry x="1050" y="1037.5" width="160" height="110" as="geometry" />
        </mxCell>
        <mxCell id="Gln6LFS1-jDFEQIsU3n5-45" value="이름 입력&#xa;&#xa;전화번호 입력&#xa;&#xa;0. 이전으로" style="text;strokeColor=none;fillColor=none;spacingLeft=4;spacingRight=4;overflow=hidden;rotatable=0;points=[[0,0.5],[1,0.5]];portConstraint=eastwest;fontSize=12;" parent="Gln6LFS1-jDFEQIsU3n5-44" vertex="1">
          <mxGeometry y="26" width="160" height="84" as="geometry" />
        </mxCell>
        <mxCell id="Gln6LFS1-jDFEQIsU3n5-46" value="2. 비밀번호 재설정" style="swimlane;fontStyle=0;childLayout=stackLayout;horizontal=1;startSize=26;fillColor=#e0e0e0;horizontalStack=0;resizeParent=1;resizeParentMax=0;resizeLast=0;collapsible=1;marginBottom=0;swimlaneFillColor=#ffffff;align=center;fontSize=14;" parent="1" vertex="1">
          <mxGeometry x="1050" y="1158.5" width="160" height="110" as="geometry" />
        </mxCell>
        <mxCell id="Gln6LFS1-jDFEQIsU3n5-47" value="아이디 입력&#xa;&#xa;전화번호 입력&#xa;&#xa;0. 이전으로" style="text;strokeColor=none;fillColor=none;spacingLeft=4;spacingRight=4;overflow=hidden;rotatable=0;points=[[0,0.5],[1,0.5]];portConstraint=eastwest;fontSize=12;" parent="Gln6LFS1-jDFEQIsU3n5-46" vertex="1">
          <mxGeometry y="26" width="160" height="84" as="geometry" />
        </mxCell>
        <mxCell id="Gln6LFS1-jDFEQIsU3n5-50" value="4. 관리자 로그인" style="swimlane;fontStyle=0;childLayout=stackLayout;horizontal=1;startSize=26;fillColor=#e0e0e0;horizontalStack=0;resizeParent=1;resizeParentMax=0;resizeLast=0;collapsible=1;marginBottom=0;swimlaneFillColor=#ffffff;align=center;fontSize=14;" parent="1" vertex="1">
          <mxGeometry x="340" y="1218" width="160" height="140" as="geometry" />
        </mxCell>
        <mxCell id="Gln6LFS1-jDFEQIsU3n5-51" value="1. 회원 관리&#xa;&#xa;2. 데이터 관리&#xa;&#xa;3. 문의 처리&#xa;&#xa;0. 로그아웃" style="text;strokeColor=none;fillColor=none;spacingLeft=4;spacingRight=4;overflow=hidden;rotatable=0;points=[[0,0.5],[1,0.5]];portConstraint=eastwest;fontSize=12;" parent="Gln6LFS1-jDFEQIsU3n5-50" vertex="1">
          <mxGeometry y="26" width="160" height="114" as="geometry" />
        </mxCell>
        <mxCell id="hVk1g4Ngubs0jlIqTiFc-2" value="1. 계좌 개설" style="swimlane;fontStyle=0;childLayout=stackLayout;horizontal=1;startSize=26;fillColor=#e0e0e0;horizontalStack=0;resizeParent=1;resizeParentMax=0;resizeLast=0;collapsible=1;marginBottom=0;swimlaneFillColor=#ffffff;align=center;fontSize=14;" parent="1" vertex="1">
          <mxGeometry x="1160" y="-910" width="160" height="160" as="geometry" />
        </mxCell>
        <mxCell id="hVk1g4Ngubs0jlIqTiFc-3" value="상품 목록 나열&#xa;&#xa;사용자 상품 선택&#xa;&#xa;가입을 위한 정보 입력&#xa;&#xa;가입 성공&#xa;&#xa;0. 이전으로" style="text;strokeColor=none;fillColor=none;spacingLeft=4;spacingRight=4;overflow=hidden;rotatable=0;points=[[0,0.5],[1,0.5]];portConstraint=eastwest;fontSize=12;" parent="hVk1g4Ngubs0jlIqTiFc-2" vertex="1">
          <mxGeometry y="26" width="160" height="134" as="geometry" />
        </mxCell>
        <mxCell id="hVk1g4Ngubs0jlIqTiFc-4" style="edgeStyle=orthogonalEdgeStyle;rounded=0;orthogonalLoop=1;jettySize=auto;html=1;entryX=0;entryY=0.5;entryDx=0;entryDy=0;" parent="1" source="Gln6LFS1-jDFEQIsU3n5-25" target="hVk1g4Ngubs0jlIqTiFc-3" edge="1">
          <mxGeometry relative="1" as="geometry" />
        </mxCell>
        <mxCell id="hVk1g4Ngubs0jlIqTiFc-5" value="2. 계좌 조회" style="swimlane;fontStyle=0;childLayout=stackLayout;horizontal=1;startSize=26;fillColor=#e0e0e0;horizontalStack=0;resizeParent=1;resizeParentMax=0;resizeLast=0;collapsible=1;marginBottom=0;swimlaneFillColor=#ffffff;align=center;fontSize=14;" parent="1" vertex="1">
          <mxGeometry x="1160" y="-744" width="160" height="180" as="geometry" />
        </mxCell>
        <mxCell id="hVk1g4Ngubs0jlIqTiFc-6" value="회원이 소유하고 있는&#xa;금융계좌를 기관별로 나열&#xa;후 각 계좌 잔액 기제&#xa;&#xa;새로고침 입력으로 업데이트&#xa;&#xa;장기간 새로고침 입력이&#xa;없으면 사용 권장&#xa;&#xa;0. 이전으로" style="text;strokeColor=none;fillColor=none;spacingLeft=4;spacingRight=4;overflow=hidden;rotatable=0;points=[[0,0.5],[1,0.5]];portConstraint=eastwest;fontSize=12;" parent="hVk1g4Ngubs0jlIqTiFc-5" vertex="1">
          <mxGeometry y="26" width="160" height="154" as="geometry" />
        </mxCell>
        <mxCell id="hVk1g4Ngubs0jlIqTiFc-7" style="edgeStyle=orthogonalEdgeStyle;rounded=0;orthogonalLoop=1;jettySize=auto;html=1;" parent="1" source="Gln6LFS1-jDFEQIsU3n5-25" target="hVk1g4Ngubs0jlIqTiFc-6" edge="1">
          <mxGeometry relative="1" as="geometry" />
        </mxCell>
        <mxCell id="hVk1g4Ngubs0jlIqTiFc-8" value="3. 계좌 해지" style="swimlane;fontStyle=0;childLayout=stackLayout;horizontal=1;startSize=26;fillColor=#e0e0e0;horizontalStack=0;resizeParent=1;resizeParentMax=0;resizeLast=0;collapsible=1;marginBottom=0;swimlaneFillColor=#ffffff;align=center;fontSize=14;" parent="1" vertex="1">
          <mxGeometry x="1160" y="-560" width="160" height="150" as="geometry" />
        </mxCell>
        <mxCell id="hVk1g4Ngubs0jlIqTiFc-9" value="사용자가 계좌 선택 후 해당&#xa;계좌 해지 진행&#xa;&#xa;동의 절차 후 해지 완료&#xa;&#xa;해당 정보 파일로 보관&#xa;&#xa;0. 이전으로" style="text;strokeColor=none;fillColor=none;spacingLeft=4;spacingRight=4;overflow=hidden;rotatable=0;points=[[0,0.5],[1,0.5]];portConstraint=eastwest;fontSize=12;" parent="hVk1g4Ngubs0jlIqTiFc-8" vertex="1">
          <mxGeometry y="26" width="160" height="124" as="geometry" />
        </mxCell>
        <mxCell id="hVk1g4Ngubs0jlIqTiFc-10" style="edgeStyle=orthogonalEdgeStyle;rounded=0;orthogonalLoop=1;jettySize=auto;html=1;entryX=0;entryY=0.5;entryDx=0;entryDy=0;" parent="1" source="Gln6LFS1-jDFEQIsU3n5-25" target="hVk1g4Ngubs0jlIqTiFc-9" edge="1">
          <mxGeometry relative="1" as="geometry" />
        </mxCell>
        <mxCell id="hVk1g4Ngubs0jlIqTiFc-11" value="4. 이자 계산기" style="swimlane;fontStyle=0;childLayout=stackLayout;horizontal=1;startSize=26;fillColor=#e0e0e0;horizontalStack=0;resizeParent=1;resizeParentMax=0;resizeLast=0;collapsible=1;marginBottom=0;swimlaneFillColor=#ffffff;align=center;fontSize=14;" parent="1" vertex="1">
          <mxGeometry x="1160" y="-404" width="160" height="150" as="geometry" />
        </mxCell>
        <mxCell id="hVk1g4Ngubs0jlIqTiFc-12" value="해당 상품에 알맞은 공식&#xa;사용&#xa;&#xa;계산기에 나온 수익은 세금을&#xa;포함하지 않는다는 문구&#xa;&#xa;0. 이전으로" style="text;strokeColor=none;fillColor=none;spacingLeft=4;spacingRight=4;overflow=hidden;rotatable=0;points=[[0,0.5],[1,0.5]];portConstraint=eastwest;fontSize=12;" parent="hVk1g4Ngubs0jlIqTiFc-11" vertex="1">
          <mxGeometry y="26" width="160" height="124" as="geometry" />
        </mxCell>
        <mxCell id="hVk1g4Ngubs0jlIqTiFc-13" style="edgeStyle=orthogonalEdgeStyle;rounded=0;orthogonalLoop=1;jettySize=auto;html=1;entryX=0;entryY=0.5;entryDx=0;entryDy=0;" parent="1" source="Gln6LFS1-jDFEQIsU3n5-25" target="hVk1g4Ngubs0jlIqTiFc-12" edge="1">
          <mxGeometry relative="1" as="geometry" />
        </mxCell>
        <mxCell id="1mtVnvNanzUPYW4IBuDM-5" style="edgeStyle=orthogonalEdgeStyle;rounded=0;orthogonalLoop=1;jettySize=auto;html=1;entryX=0.5;entryY=0;entryDx=0;entryDy=0;" parent="1" source="hVk1g4Ngubs0jlIqTiFc-21" target="hVk1g4Ngubs0jlIqTiFc-23" edge="1">
          <mxGeometry relative="1" as="geometry" />
        </mxCell>
        <mxCell id="hVk1g4Ngubs0jlIqTiFc-21" value="2. 투자 관리" style="swimlane;fontStyle=0;childLayout=stackLayout;horizontal=1;startSize=26;fillColor=#e0e0e0;horizontalStack=0;resizeParent=1;resizeParentMax=0;resizeLast=0;collapsible=1;marginBottom=0;swimlaneFillColor=#ffffff;align=center;fontSize=14;" parent="1" vertex="1">
          <mxGeometry x="870" y="-455" width="160" height="110" as="geometry" />
        </mxCell>
        <mxCell id="hVk1g4Ngubs0jlIqTiFc-22" value="투자 현황 목록&#xa;&#xa;사용자가 거래할 상품 선택&#xa;&#xa;0. 이전으로" style="text;strokeColor=none;fillColor=none;spacingLeft=4;spacingRight=4;overflow=hidden;rotatable=0;points=[[0,0.5],[1,0.5]];portConstraint=eastwest;fontSize=12;" parent="hVk1g4Ngubs0jlIqTiFc-21" vertex="1">
          <mxGeometry y="26" width="160" height="84" as="geometry" />
        </mxCell>
        <mxCell id="hVk1g4Ngubs0jlIqTiFc-23" value="상품 거래" style="swimlane;fontStyle=0;childLayout=stackLayout;horizontal=1;startSize=26;fillColor=#e0e0e0;horizontalStack=0;resizeParent=1;resizeParentMax=0;resizeLast=0;collapsible=1;marginBottom=0;swimlaneFillColor=#ffffff;align=center;fontSize=14;" parent="1" vertex="1">
          <mxGeometry x="870" y="-318" width="160" height="110" as="geometry" />
        </mxCell>
        <mxCell id="hVk1g4Ngubs0jlIqTiFc-24" value="사용자가 선택한 상품&#xa;매수 / 매도 / 해지&#xa;&#xa;0. 이전으로" style="text;strokeColor=none;fillColor=none;spacingLeft=4;spacingRight=4;overflow=hidden;rotatable=0;points=[[0,0.5],[1,0.5]];portConstraint=eastwest;fontSize=12;" parent="hVk1g4Ngubs0jlIqTiFc-23" vertex="1">
          <mxGeometry y="26" width="160" height="84" as="geometry" />
        </mxCell>
        <mxCell id="hVk1g4Ngubs0jlIqTiFc-26" style="edgeStyle=orthogonalEdgeStyle;rounded=0;orthogonalLoop=1;jettySize=auto;html=1;" parent="1" source="Gln6LFS1-jDFEQIsU3n5-9" target="hVk1g4Ngubs0jlIqTiFc-22" edge="1">
          <mxGeometry relative="1" as="geometry" />
        </mxCell>
        <mxCell id="hVk1g4Ngubs0jlIqTiFc-27" style="edgeStyle=orthogonalEdgeStyle;rounded=0;orthogonalLoop=1;jettySize=auto;html=1;" parent="1" source="Gln6LFS1-jDFEQIsU3n5-9" target="Gln6LFS1-jDFEQIsU3n5-31" edge="1">
          <mxGeometry relative="1" as="geometry">
            <Array as="points">
              <mxPoint x="1440" y="-197" />
            </Array>
          </mxGeometry>
        </mxCell>
        <mxCell id="hVk1g4Ngubs0jlIqTiFc-28" value="1. 내 대출 관리" style="swimlane;fontStyle=0;childLayout=stackLayout;horizontal=1;startSize=26;fillColor=#e0e0e0;horizontalStack=0;resizeParent=1;resizeParentMax=0;resizeLast=0;collapsible=1;marginBottom=0;swimlaneFillColor=#ffffff;align=center;fontSize=14;" parent="1" vertex="1">
          <mxGeometry x="1658" y="-710" width="160" height="160" as="geometry" />
        </mxCell>
        <mxCell id="hVk1g4Ngubs0jlIqTiFc-29" value="대출 상환&#xa;&#xa;대출 기한 연장&#xa;&#xa;대출 취소&#xa;&#xa;중도 상환 수수료 기준 확인&#xa;&#xa;0. 이전으로" style="text;strokeColor=none;fillColor=none;spacingLeft=4;spacingRight=4;overflow=hidden;rotatable=0;points=[[0,0.5],[1,0.5]];portConstraint=eastwest;fontSize=12;" parent="hVk1g4Ngubs0jlIqTiFc-28" vertex="1">
          <mxGeometry y="26" width="160" height="134" as="geometry" />
        </mxCell>
        <mxCell id="hVk1g4Ngubs0jlIqTiFc-30" style="edgeStyle=orthogonalEdgeStyle;rounded=0;orthogonalLoop=1;jettySize=auto;html=1;entryX=0;entryY=0.5;entryDx=0;entryDy=0;" parent="1" source="Gln6LFS1-jDFEQIsU3n5-31" target="hVk1g4Ngubs0jlIqTiFc-29" edge="1">
          <mxGeometry relative="1" as="geometry" />
        </mxCell>
        <mxCell id="hVk1g4Ngubs0jlIqTiFc-31" value="2. 대출 현황 보기" style="swimlane;fontStyle=0;childLayout=stackLayout;horizontal=1;startSize=26;fillColor=#e0e0e0;horizontalStack=0;resizeParent=1;resizeParentMax=0;resizeLast=0;collapsible=1;marginBottom=0;swimlaneFillColor=#ffffff;align=center;fontSize=14;" parent="1" vertex="1">
          <mxGeometry x="1658" y="-545" width="160" height="160" as="geometry" />
        </mxCell>
        <mxCell id="hVk1g4Ngubs0jlIqTiFc-32" value="사용자의 대출 현황&#xa;&#xa;대출 금액&#xa;&#xa;상환 진척도&#xa;&#xa;다음 상환일 및 상환금&#xa;&#xa;0. 이전으로" style="text;strokeColor=none;fillColor=none;spacingLeft=4;spacingRight=4;overflow=hidden;rotatable=0;points=[[0,0.5],[1,0.5]];portConstraint=eastwest;fontSize=12;" parent="hVk1g4Ngubs0jlIqTiFc-31" vertex="1">
          <mxGeometry y="26" width="160" height="134" as="geometry" />
        </mxCell>
        <mxCell id="hVk1g4Ngubs0jlIqTiFc-33" style="edgeStyle=orthogonalEdgeStyle;rounded=0;orthogonalLoop=1;jettySize=auto;html=1;" parent="1" source="Gln6LFS1-jDFEQIsU3n5-31" target="hVk1g4Ngubs0jlIqTiFc-32" edge="1">
          <mxGeometry relative="1" as="geometry" />
        </mxCell>
        <mxCell id="hVk1g4Ngubs0jlIqTiFc-34" value="3. 대출금 상환 내역" style="swimlane;fontStyle=0;childLayout=stackLayout;horizontal=1;startSize=26;fillColor=#e0e0e0;horizontalStack=0;resizeParent=1;resizeParentMax=0;resizeLast=0;collapsible=1;marginBottom=0;swimlaneFillColor=#ffffff;align=center;fontSize=14;" parent="1" vertex="1">
          <mxGeometry x="1658" y="-381" width="160" height="150" as="geometry" />
        </mxCell>
        <mxCell id="hVk1g4Ngubs0jlIqTiFc-35" value="사용자가 상환한 금액&#xa;&#xa;상환중 혹은 상환 완료 후&#xa;1년 이내 이력&#xa;&#xa;각 은행별로 분류&#xa;&#xa;0. 이전으로" style="text;strokeColor=none;fillColor=none;spacingLeft=4;spacingRight=4;overflow=hidden;rotatable=0;points=[[0,0.5],[1,0.5]];portConstraint=eastwest;fontSize=12;" parent="hVk1g4Ngubs0jlIqTiFc-34" vertex="1">
          <mxGeometry y="26" width="160" height="124" as="geometry" />
        </mxCell>
        <mxCell id="hVk1g4Ngubs0jlIqTiFc-36" style="edgeStyle=orthogonalEdgeStyle;rounded=0;orthogonalLoop=1;jettySize=auto;html=1;" parent="1" source="Gln6LFS1-jDFEQIsU3n5-31" target="hVk1g4Ngubs0jlIqTiFc-35" edge="1">
          <mxGeometry relative="1" as="geometry" />
        </mxCell>
        <mxCell id="hVk1g4Ngubs0jlIqTiFc-37" value="4. 중도 상환 계산기" style="swimlane;fontStyle=0;childLayout=stackLayout;horizontal=1;startSize=26;fillColor=#e0e0e0;horizontalStack=0;resizeParent=1;resizeParentMax=0;resizeLast=0;collapsible=1;marginBottom=0;swimlaneFillColor=#ffffff;align=center;fontSize=14;" parent="1" vertex="1">
          <mxGeometry x="1658" y="-226" width="160" height="140" as="geometry" />
        </mxCell>
        <mxCell id="hVk1g4Ngubs0jlIqTiFc-38" value="중도 상환 수수료율&#xa;&#xa;중도 상환 수수료 계산기&#xa;&#xa;중도 상환 신청 방법 안내&#xa;&#xa;0. 이전으로" style="text;strokeColor=none;fillColor=none;spacingLeft=4;spacingRight=4;overflow=hidden;rotatable=0;points=[[0,0.5],[1,0.5]];portConstraint=eastwest;fontSize=12;" parent="hVk1g4Ngubs0jlIqTiFc-37" vertex="1">
          <mxGeometry y="26" width="160" height="114" as="geometry" />
        </mxCell>
        <mxCell id="hVk1g4Ngubs0jlIqTiFc-40" style="edgeStyle=orthogonalEdgeStyle;rounded=0;orthogonalLoop=1;jettySize=auto;html=1;entryX=0;entryY=0.5;entryDx=0;entryDy=0;" parent="1" source="l3aqHpHgYv1EVChQh6qO-17" target="Gln6LFS1-jDFEQIsU3n5-9" edge="1">
          <mxGeometry relative="1" as="geometry" />
        </mxCell>
        <mxCell id="hVk1g4Ngubs0jlIqTiFc-41" style="edgeStyle=orthogonalEdgeStyle;rounded=0;orthogonalLoop=1;jettySize=auto;html=1;" parent="1" source="l3aqHpHgYv1EVChQh6qO-17" target="Gln6LFS1-jDFEQIsU3n5-12" edge="1">
          <mxGeometry relative="1" as="geometry" />
        </mxCell>
        <mxCell id="hVk1g4Ngubs0jlIqTiFc-42" style="edgeStyle=orthogonalEdgeStyle;rounded=0;orthogonalLoop=1;jettySize=auto;html=1;entryX=0;entryY=0.5;entryDx=0;entryDy=0;" parent="1" source="l3aqHpHgYv1EVChQh6qO-17" target="Gln6LFS1-jDFEQIsU3n5-15" edge="1">
          <mxGeometry relative="1" as="geometry" />
        </mxCell>
        <mxCell id="hVk1g4Ngubs0jlIqTiFc-43" value="1. 예적금" style="swimlane;fontStyle=0;childLayout=stackLayout;horizontal=1;startSize=26;fillColor=#e0e0e0;horizontalStack=0;resizeParent=1;resizeParentMax=0;resizeLast=0;collapsible=1;marginBottom=0;swimlaneFillColor=#ffffff;align=center;fontSize=14;" parent="1" vertex="1">
          <mxGeometry x="1534" y="41" width="160" height="106" as="geometry" />
        </mxCell>
        <mxCell id="hVk1g4Ngubs0jlIqTiFc-44" value="1. 예적금 상품 목록&#xa;&#xa;2. 가입&#xa;&#xa;0. 이전으로" style="text;strokeColor=none;fillColor=none;spacingLeft=4;spacingRight=4;overflow=hidden;rotatable=0;points=[[0,0.5],[1,0.5]];portConstraint=eastwest;fontSize=12;" parent="hVk1g4Ngubs0jlIqTiFc-43" vertex="1">
          <mxGeometry y="26" width="160" height="80" as="geometry" />
        </mxCell>
        <mxCell id="hVk1g4Ngubs0jlIqTiFc-45" value="2. 주식" style="swimlane;fontStyle=0;childLayout=stackLayout;horizontal=1;startSize=26;fillColor=#e0e0e0;horizontalStack=0;resizeParent=1;resizeParentMax=0;resizeLast=0;collapsible=1;marginBottom=0;swimlaneFillColor=#ffffff;align=center;fontSize=14;" parent="1" vertex="1">
          <mxGeometry x="1534" y="156" width="160" height="130" as="geometry" />
        </mxCell>
        <mxCell id="hVk1g4Ngubs0jlIqTiFc-46" value="1. 국내 주식 추천&#xa;&#xa;2. 해외 주식 추천&#xa;&#xa;3. 구매&#xa;&#xa;0. 이전으로" style="text;strokeColor=none;fillColor=none;spacingLeft=4;spacingRight=4;overflow=hidden;rotatable=0;points=[[0,0.5],[1,0.5]];portConstraint=eastwest;fontSize=12;" parent="hVk1g4Ngubs0jlIqTiFc-45" vertex="1">
          <mxGeometry y="26" width="160" height="104" as="geometry" />
        </mxCell>
        <mxCell id="hVk1g4Ngubs0jlIqTiFc-47" value="3. 펀드" style="swimlane;fontStyle=0;childLayout=stackLayout;horizontal=1;startSize=26;fillColor=#e0e0e0;horizontalStack=0;resizeParent=1;resizeParentMax=0;resizeLast=0;collapsible=1;marginBottom=0;swimlaneFillColor=#ffffff;align=center;fontSize=14;" parent="1" vertex="1">
          <mxGeometry x="1534" y="296" width="160" height="126" as="geometry" />
        </mxCell>
        <mxCell id="hVk1g4Ngubs0jlIqTiFc-48" value="1. 펀드 상품 목록&#xa;&#xa;2. 가입&#xa;&#xa;0. 이전으로" style="text;strokeColor=none;fillColor=none;spacingLeft=4;spacingRight=4;overflow=hidden;rotatable=0;points=[[0,0.5],[1,0.5]];portConstraint=eastwest;fontSize=12;" parent="hVk1g4Ngubs0jlIqTiFc-47" vertex="1">
          <mxGeometry y="26" width="160" height="100" as="geometry" />
        </mxCell>
        <mxCell id="hVk1g4Ngubs0jlIqTiFc-49" value="4. 대출" style="swimlane;fontStyle=0;childLayout=stackLayout;horizontal=1;startSize=26;fillColor=#e0e0e0;horizontalStack=0;resizeParent=1;resizeParentMax=0;resizeLast=0;collapsible=1;marginBottom=0;swimlaneFillColor=#ffffff;align=center;fontSize=14;" parent="1" vertex="1">
          <mxGeometry x="1750" y="121" width="160" height="106" as="geometry" />
        </mxCell>
        <mxCell id="hVk1g4Ngubs0jlIqTiFc-50" value="1. 최대 대출금&#xa;&#xa;2. 대출 추천&#xa;&#xa;0. 이전으로" style="text;strokeColor=none;fillColor=none;spacingLeft=4;spacingRight=4;overflow=hidden;rotatable=0;points=[[0,0.5],[1,0.5]];portConstraint=eastwest;fontSize=12;" parent="hVk1g4Ngubs0jlIqTiFc-49" vertex="1">
          <mxGeometry y="26" width="160" height="80" as="geometry" />
        </mxCell>
        <mxCell id="hVk1g4Ngubs0jlIqTiFc-51" value="5. 골드" style="swimlane;fontStyle=0;childLayout=stackLayout;horizontal=1;startSize=26;fillColor=#e0e0e0;horizontalStack=0;resizeParent=1;resizeParentMax=0;resizeLast=0;collapsible=1;marginBottom=0;swimlaneFillColor=#ffffff;align=center;fontSize=14;" parent="1" vertex="1">
          <mxGeometry x="1750" y="237" width="160" height="76" as="geometry" />
        </mxCell>
        <mxCell id="hVk1g4Ngubs0jlIqTiFc-52" value="현재 금 시세&#xa;&#xa;0. 이전으로" style="text;strokeColor=none;fillColor=none;spacingLeft=4;spacingRight=4;overflow=hidden;rotatable=0;points=[[0,0.5],[1,0.5]];portConstraint=eastwest;fontSize=12;" parent="hVk1g4Ngubs0jlIqTiFc-51" vertex="1">
          <mxGeometry y="26" width="160" height="50" as="geometry" />
        </mxCell>
        <mxCell id="hVk1g4Ngubs0jlIqTiFc-53" value="6. 환전" style="swimlane;fontStyle=0;childLayout=stackLayout;horizontal=1;startSize=26;fillColor=#e0e0e0;horizontalStack=0;resizeParent=1;resizeParentMax=0;resizeLast=0;collapsible=1;marginBottom=0;swimlaneFillColor=#ffffff;align=center;fontSize=14;" parent="1" vertex="1">
          <mxGeometry x="1750" y="321" width="160" height="110" as="geometry" />
        </mxCell>
        <mxCell id="hVk1g4Ngubs0jlIqTiFc-54" value="환율 정보&#xa;&#xa;1. 환전하기&#xa;&#xa;0. 이전으로" style="text;strokeColor=none;fillColor=none;spacingLeft=4;spacingRight=4;overflow=hidden;rotatable=0;points=[[0,0.5],[1,0.5]];portConstraint=eastwest;fontSize=12;" parent="hVk1g4Ngubs0jlIqTiFc-53" vertex="1">
          <mxGeometry y="26" width="160" height="84" as="geometry" />
        </mxCell>
        <mxCell id="hVk1g4Ngubs0jlIqTiFc-55" style="edgeStyle=orthogonalEdgeStyle;rounded=0;orthogonalLoop=1;jettySize=auto;html=1;" parent="1" source="Gln6LFS1-jDFEQIsU3n5-15" target="hVk1g4Ngubs0jlIqTiFc-54" edge="1">
          <mxGeometry relative="1" as="geometry">
            <Array as="points">
              <mxPoint x="1710" y="431" />
              <mxPoint x="1710" y="389" />
            </Array>
          </mxGeometry>
        </mxCell>
        <mxCell id="hVk1g4Ngubs0jlIqTiFc-61" value="1, 공지사항" style="swimlane;fontStyle=0;childLayout=stackLayout;horizontal=1;startSize=26;fillColor=#e0e0e0;horizontalStack=0;resizeParent=1;resizeParentMax=0;resizeLast=0;collapsible=1;marginBottom=0;swimlaneFillColor=#ffffff;align=center;fontSize=14;" parent="1" vertex="1">
          <mxGeometry x="1493" y="506" width="160" height="80" as="geometry" />
        </mxCell>
        <mxCell id="hVk1g4Ngubs0jlIqTiFc-62" value="공지사항 조회&#xa;&#xa;0. 이전으로" style="text;strokeColor=none;fillColor=none;spacingLeft=4;spacingRight=4;overflow=hidden;rotatable=0;points=[[0,0.5],[1,0.5]];portConstraint=eastwest;fontSize=12;" parent="hVk1g4Ngubs0jlIqTiFc-61" vertex="1">
          <mxGeometry y="26" width="160" height="54" as="geometry" />
        </mxCell>
        <mxCell id="hVk1g4Ngubs0jlIqTiFc-63" style="edgeStyle=orthogonalEdgeStyle;rounded=0;orthogonalLoop=1;jettySize=auto;html=1;entryX=0;entryY=0.5;entryDx=0;entryDy=0;" parent="1" source="Gln6LFS1-jDFEQIsU3n5-18" target="hVk1g4Ngubs0jlIqTiFc-62" edge="1">
          <mxGeometry relative="1" as="geometry" />
        </mxCell>
        <mxCell id="hVk1g4Ngubs0jlIqTiFc-64" value="2. 문의하기" style="swimlane;fontStyle=0;childLayout=stackLayout;horizontal=1;startSize=26;fillColor=#e0e0e0;horizontalStack=0;resizeParent=1;resizeParentMax=0;resizeLast=0;collapsible=1;marginBottom=0;swimlaneFillColor=#ffffff;align=center;fontSize=14;" parent="1" vertex="1">
          <mxGeometry x="1493" y="598" width="160" height="80" as="geometry" />
        </mxCell>
        <mxCell id="hVk1g4Ngubs0jlIqTiFc-65" value="문의등록&#xa;&#xa;0. 이전으로" style="text;strokeColor=none;fillColor=none;spacingLeft=4;spacingRight=4;overflow=hidden;rotatable=0;points=[[0,0.5],[1,0.5]];portConstraint=eastwest;fontSize=12;" parent="hVk1g4Ngubs0jlIqTiFc-64" vertex="1">
          <mxGeometry y="26" width="160" height="54" as="geometry" />
        </mxCell>
        <mxCell id="hVk1g4Ngubs0jlIqTiFc-68" style="edgeStyle=orthogonalEdgeStyle;rounded=0;orthogonalLoop=1;jettySize=auto;html=1;" parent="1" source="Gln6LFS1-jDFEQIsU3n5-18" target="hVk1g4Ngubs0jlIqTiFc-65" edge="1">
          <mxGeometry relative="1" as="geometry" />
        </mxCell>
        <mxCell id="hVk1g4Ngubs0jlIqTiFc-69" value="1. 회원 관리" style="swimlane;fontStyle=0;childLayout=stackLayout;horizontal=1;startSize=26;fillColor=#e0e0e0;horizontalStack=0;resizeParent=1;resizeParentMax=0;resizeLast=0;collapsible=1;marginBottom=0;swimlaneFillColor=#ffffff;align=center;fontSize=14;" parent="1" vertex="1">
          <mxGeometry x="540" y="1241" width="160" height="110" as="geometry" />
        </mxCell>
        <mxCell id="hVk1g4Ngubs0jlIqTiFc-70" value="1. 일반 회원 관리&#xa;&#xa;2. 블랙리스트 관리&#xa;&#xa;0. 이전으로" style="text;strokeColor=none;fillColor=none;spacingLeft=4;spacingRight=4;overflow=hidden;rotatable=0;points=[[0,0.5],[1,0.5]];portConstraint=eastwest;fontSize=12;" parent="hVk1g4Ngubs0jlIqTiFc-69" vertex="1">
          <mxGeometry y="26" width="160" height="84" as="geometry" />
        </mxCell>
        <mxCell id="hVk1g4Ngubs0jlIqTiFc-71" value="2. 데이터 관리" style="swimlane;fontStyle=0;childLayout=stackLayout;horizontal=1;startSize=26;fillColor=#e0e0e0;horizontalStack=0;resizeParent=1;resizeParentMax=0;resizeLast=0;collapsible=1;marginBottom=0;swimlaneFillColor=#ffffff;align=center;fontSize=14;" parent="1" vertex="1">
          <mxGeometry x="540" y="1366" width="160" height="110" as="geometry" />
        </mxCell>
        <mxCell id="hVk1g4Ngubs0jlIqTiFc-72" value="1. 상품 관리&#xa;&#xa;2. 사용자 데이터&#xa;&#xa;0. 이전으로" style="text;strokeColor=none;fillColor=none;spacingLeft=4;spacingRight=4;overflow=hidden;rotatable=0;points=[[0,0.5],[1,0.5]];portConstraint=eastwest;fontSize=12;" parent="hVk1g4Ngubs0jlIqTiFc-71" vertex="1">
          <mxGeometry y="26" width="160" height="84" as="geometry" />
        </mxCell>
        <mxCell id="hVk1g4Ngubs0jlIqTiFc-73" value="3. 문의 처리" style="swimlane;fontStyle=0;childLayout=stackLayout;horizontal=1;startSize=26;fillColor=#e0e0e0;horizontalStack=0;resizeParent=1;resizeParentMax=0;resizeLast=0;collapsible=1;marginBottom=0;swimlaneFillColor=#ffffff;align=center;fontSize=14;" parent="1" vertex="1">
          <mxGeometry x="540" y="1501" width="160" height="110" as="geometry" />
        </mxCell>
        <mxCell id="hVk1g4Ngubs0jlIqTiFc-74" value="1. 공지사항 관리&#xa;&#xa;2. 문의 사항 관리&#xa;&#xa;0. 이전으로" style="text;strokeColor=none;fillColor=none;spacingLeft=4;spacingRight=4;overflow=hidden;rotatable=0;points=[[0,0.5],[1,0.5]];portConstraint=eastwest;fontSize=12;" parent="hVk1g4Ngubs0jlIqTiFc-73" vertex="1">
          <mxGeometry y="26" width="160" height="84" as="geometry" />
        </mxCell>
        <mxCell id="hVk1g4Ngubs0jlIqTiFc-75" value="2. 문의 사항 관리" style="swimlane;fontStyle=0;childLayout=stackLayout;horizontal=1;startSize=26;fillColor=#e0e0e0;horizontalStack=0;resizeParent=1;resizeParentMax=0;resizeLast=0;collapsible=1;marginBottom=0;swimlaneFillColor=#ffffff;align=center;fontSize=14;" parent="1" vertex="1">
          <mxGeometry x="760" y="1561" width="160" height="140" as="geometry" />
        </mxCell>
        <mxCell id="hVk1g4Ngubs0jlIqTiFc-76" value="1. 비밀글 문의 확인 및 답변&#xa;&#xa;2. 문의글 답변&#xa;&#xa;3. 문의글 삭제&#xa;&#xa;0. 이전으로" style="text;strokeColor=none;fillColor=none;spacingLeft=4;spacingRight=4;overflow=hidden;rotatable=0;points=[[0,0.5],[1,0.5]];portConstraint=eastwest;fontSize=12;" parent="hVk1g4Ngubs0jlIqTiFc-75" vertex="1">
          <mxGeometry y="26" width="160" height="114" as="geometry" />
        </mxCell>
        <mxCell id="hVk1g4Ngubs0jlIqTiFc-77" style="edgeStyle=orthogonalEdgeStyle;rounded=0;orthogonalLoop=1;jettySize=auto;html=1;entryX=0;entryY=0.405;entryDx=0;entryDy=0;entryPerimeter=0;" parent="1" source="Gln6LFS1-jDFEQIsU3n5-51" target="hVk1g4Ngubs0jlIqTiFc-70" edge="1">
          <mxGeometry relative="1" as="geometry" />
        </mxCell>
        <mxCell id="hVk1g4Ngubs0jlIqTiFc-78" style="edgeStyle=orthogonalEdgeStyle;rounded=0;orthogonalLoop=1;jettySize=auto;html=1;entryX=0;entryY=0.5;entryDx=0;entryDy=0;" parent="1" source="Gln6LFS1-jDFEQIsU3n5-51" target="hVk1g4Ngubs0jlIqTiFc-72" edge="1">
          <mxGeometry relative="1" as="geometry" />
        </mxCell>
        <mxCell id="hVk1g4Ngubs0jlIqTiFc-79" style="edgeStyle=orthogonalEdgeStyle;rounded=0;orthogonalLoop=1;jettySize=auto;html=1;entryX=0;entryY=0.5;entryDx=0;entryDy=0;" parent="1" source="Gln6LFS1-jDFEQIsU3n5-51" target="hVk1g4Ngubs0jlIqTiFc-74" edge="1">
          <mxGeometry relative="1" as="geometry" />
        </mxCell>
        <mxCell id="hVk1g4Ngubs0jlIqTiFc-80" style="edgeStyle=orthogonalEdgeStyle;rounded=0;orthogonalLoop=1;jettySize=auto;html=1;entryX=0;entryY=0.5;entryDx=0;entryDy=0;" parent="1" source="hVk1g4Ngubs0jlIqTiFc-74" target="hVk1g4Ngubs0jlIqTiFc-76" edge="1">
          <mxGeometry relative="1" as="geometry" />
        </mxCell>
        <mxCell id="hVk1g4Ngubs0jlIqTiFc-81" value="1. 공지사항 관리" style="swimlane;fontStyle=0;childLayout=stackLayout;horizontal=1;startSize=26;fillColor=#e0e0e0;horizontalStack=0;resizeParent=1;resizeParentMax=0;resizeLast=0;collapsible=1;marginBottom=0;swimlaneFillColor=#ffffff;align=center;fontSize=14;" parent="1" vertex="1">
          <mxGeometry x="760" y="1411" width="160" height="140" as="geometry" />
        </mxCell>
        <mxCell id="hVk1g4Ngubs0jlIqTiFc-82" value="1. 작성&#xa;&#xa;2. 수정&#xa;&#xa;3. 삭제&#xa;&#xa;0. 이전으로" style="text;strokeColor=none;fillColor=none;spacingLeft=4;spacingRight=4;overflow=hidden;rotatable=0;points=[[0,0.5],[1,0.5]];portConstraint=eastwest;fontSize=12;" parent="hVk1g4Ngubs0jlIqTiFc-81" vertex="1">
          <mxGeometry y="26" width="160" height="114" as="geometry" />
        </mxCell>
        <mxCell id="hVk1g4Ngubs0jlIqTiFc-83" style="edgeStyle=orthogonalEdgeStyle;rounded=0;orthogonalLoop=1;jettySize=auto;html=1;entryX=0;entryY=0.5;entryDx=0;entryDy=0;" parent="1" source="hVk1g4Ngubs0jlIqTiFc-74" target="hVk1g4Ngubs0jlIqTiFc-82" edge="1">
          <mxGeometry relative="1" as="geometry" />
        </mxCell>
        <mxCell id="hVk1g4Ngubs0jlIqTiFc-84" value="3. 문의 내역" style="swimlane;fontStyle=0;childLayout=stackLayout;horizontal=1;startSize=26;fillColor=#e0e0e0;horizontalStack=0;resizeParent=1;resizeParentMax=0;resizeLast=0;collapsible=1;marginBottom=0;swimlaneFillColor=#ffffff;align=center;fontSize=14;" parent="1" vertex="1">
          <mxGeometry x="1493" y="690" width="160" height="80" as="geometry" />
        </mxCell>
        <mxCell id="hVk1g4Ngubs0jlIqTiFc-85" value="문의 내역 조회&#xa;&#xa;0. 이전으로" style="text;strokeColor=none;fillColor=none;spacingLeft=4;spacingRight=4;overflow=hidden;rotatable=0;points=[[0,0.5],[1,0.5]];portConstraint=eastwest;fontSize=12;" parent="hVk1g4Ngubs0jlIqTiFc-84" vertex="1">
          <mxGeometry y="26" width="160" height="54" as="geometry" />
        </mxCell>
        <mxCell id="hVk1g4Ngubs0jlIqTiFc-86" style="edgeStyle=orthogonalEdgeStyle;rounded=0;orthogonalLoop=1;jettySize=auto;html=1;" parent="1" source="Gln6LFS1-jDFEQIsU3n5-18" target="hVk1g4Ngubs0jlIqTiFc-85" edge="1">
          <mxGeometry relative="1" as="geometry" />
        </mxCell>
        <mxCell id="1mtVnvNanzUPYW4IBuDM-1" style="edgeStyle=orthogonalEdgeStyle;rounded=0;orthogonalLoop=1;jettySize=auto;html=1;" parent="1" source="l3aqHpHgYv1EVChQh6qO-8" target="Gln6LFS1-jDFEQIsU3n5-51" edge="1">
          <mxGeometry relative="1" as="geometry" />
        </mxCell>
        <mxCell id="1mtVnvNanzUPYW4IBuDM-4" style="edgeStyle=orthogonalEdgeStyle;rounded=0;orthogonalLoop=1;jettySize=auto;html=1;entryX=0;entryY=0.5;entryDx=0;entryDy=0;" parent="1" source="Gln6LFS1-jDFEQIsU3n5-31" target="hVk1g4Ngubs0jlIqTiFc-38" edge="1">
          <mxGeometry relative="1" as="geometry" />
        </mxCell>
        <mxCell id="mTLhHtyHSyYMR0iBE1dG-1" style="edgeStyle=orthogonalEdgeStyle;rounded=0;orthogonalLoop=1;jettySize=auto;html=1;entryX=0;entryY=0.5;entryDx=0;entryDy=0;" parent="1" source="Gln6LFS1-jDFEQIsU3n5-15" target="hVk1g4Ngubs0jlIqTiFc-52" edge="1">
          <mxGeometry relative="1" as="geometry">
            <Array as="points">
              <mxPoint x="1710" y="431" />
              <mxPoint x="1710" y="291" />
              <mxPoint x="1750" y="291" />
            </Array>
          </mxGeometry>
        </mxCell>
        <mxCell id="mTLhHtyHSyYMR0iBE1dG-2" style="edgeStyle=orthogonalEdgeStyle;rounded=0;orthogonalLoop=1;jettySize=auto;html=1;entryX=0;entryY=0.5;entryDx=0;entryDy=0;" parent="1" source="Gln6LFS1-jDFEQIsU3n5-15" target="hVk1g4Ngubs0jlIqTiFc-50" edge="1">
          <mxGeometry relative="1" as="geometry">
            <Array as="points">
              <mxPoint x="1710" y="431" />
              <mxPoint x="1710" y="187" />
            </Array>
          </mxGeometry>
        </mxCell>
        <mxCell id="mTLhHtyHSyYMR0iBE1dG-3" style="edgeStyle=orthogonalEdgeStyle;rounded=0;orthogonalLoop=1;jettySize=auto;html=1;entryX=0;entryY=0.5;entryDx=0;entryDy=0;" parent="1" source="Gln6LFS1-jDFEQIsU3n5-15" target="hVk1g4Ngubs0jlIqTiFc-44" edge="1">
          <mxGeometry relative="1" as="geometry" />
        </mxCell>
        <mxCell id="mTLhHtyHSyYMR0iBE1dG-4" style="edgeStyle=orthogonalEdgeStyle;rounded=0;orthogonalLoop=1;jettySize=auto;html=1;entryX=0;entryY=0.5;entryDx=0;entryDy=0;" parent="1" source="Gln6LFS1-jDFEQIsU3n5-15" target="hVk1g4Ngubs0jlIqTiFc-46" edge="1">
          <mxGeometry relative="1" as="geometry" />
        </mxCell>
        <mxCell id="mTLhHtyHSyYMR0iBE1dG-5" style="edgeStyle=orthogonalEdgeStyle;rounded=0;orthogonalLoop=1;jettySize=auto;html=1;entryX=0;entryY=0.5;entryDx=0;entryDy=0;" parent="1" source="Gln6LFS1-jDFEQIsU3n5-15" target="hVk1g4Ngubs0jlIqTiFc-48" edge="1">
          <mxGeometry relative="1" as="geometry" />
        </mxCell>
        <mxCell id="mTLhHtyHSyYMR0iBE1dG-6" style="edgeStyle=orthogonalEdgeStyle;rounded=0;orthogonalLoop=1;jettySize=auto;html=1;entryX=0;entryY=0.5;entryDx=0;entryDy=0;" parent="1" source="l3aqHpHgYv1EVChQh6qO-8" target="l3aqHpHgYv1EVChQh6qO-24" edge="1">
          <mxGeometry relative="1" as="geometry" />
        </mxCell>
        <mxCell id="mTLhHtyHSyYMR0iBE1dG-7" style="edgeStyle=orthogonalEdgeStyle;rounded=0;orthogonalLoop=1;jettySize=auto;html=1;entryX=0;entryY=0.5;entryDx=0;entryDy=0;" parent="1" source="l3aqHpHgYv1EVChQh6qO-8" target="l3aqHpHgYv1EVChQh6qO-13" edge="1">
          <mxGeometry relative="1" as="geometry" />
        </mxCell>
        <mxCell id="mTLhHtyHSyYMR0iBE1dG-8" style="edgeStyle=orthogonalEdgeStyle;rounded=0;orthogonalLoop=1;jettySize=auto;html=1;entryX=0;entryY=0.5;entryDx=0;entryDy=0;" parent="1" source="l3aqHpHgYv1EVChQh6qO-13" target="Gln6LFS1-jDFEQIsU3n5-45" edge="1">
          <mxGeometry relative="1" as="geometry" />
        </mxCell>
        <mxCell id="mTLhHtyHSyYMR0iBE1dG-9" style="edgeStyle=orthogonalEdgeStyle;rounded=0;orthogonalLoop=1;jettySize=auto;html=1;entryX=0;entryY=0.5;entryDx=0;entryDy=0;" parent="1" source="l3aqHpHgYv1EVChQh6qO-13" target="Gln6LFS1-jDFEQIsU3n5-47" edge="1">
          <mxGeometry relative="1" as="geometry" />
        </mxCell>
      </root>
    </mxGraphModel>
  </diagram>
</mxfile>
